<svg width="32" height="32" viewBox="0 0 32 32" fill="none" xmlns="http://www.w3.org/2000/svg">
<circle cx="16" cy="16" r="16" fill="black"/>
<path d="M6.8857 22.2V10.5636H10.8175C11.7266 10.5636 12.4728 10.719 13.0562 11.0296C13.6395 11.3364 14.0713 11.7587 14.3516 12.2966C14.6319 12.8345 14.7721 13.4462 14.7721 14.1318C14.7721 14.8174 14.6319 15.4254 14.3516 15.9557C14.0713 16.486 13.6414 16.9027 13.0618 17.2057C12.4823 17.5049 11.7418 17.6546 10.8402 17.6546H7.65843V16.3818H10.7948C11.416 16.3818 11.916 16.2909 12.2948 16.1091C12.6774 15.9273 12.9539 15.6697 13.1243 15.3364C13.2986 14.9993 13.3857 14.5977 13.3857 14.1318C13.3857 13.6659 13.2986 13.2587 13.1243 12.9102C12.9501 12.5618 12.6717 12.2928 12.2891 12.1034C11.9065 11.9102 11.4009 11.8136 10.7721 11.8136H8.29479V22.2H6.8857ZM12.363 16.9727L15.2266 22.2H13.5902L10.7721 16.9727H12.363ZM17.5973 22.2H16.1201L20.3928 10.5636H21.8474L26.1201 22.2H24.6428L21.1655 12.4046H21.0746L17.5973 22.2ZM18.1428 17.6546H24.0974V18.9046H18.1428V17.6546Z" fill="white"/>
</svg>
